<svg width="24" height="24" viewBox="0 0 24 24" fill="none" xmlns="http://www.w3.org/2000/svg">
<path fill-rule="evenodd" clip-rule="evenodd" d="M21 9.96802C21.5523 9.96802 22 10.4157 22 10.968V12.968C22 13.5203 21.5523 13.968 21 13.968V9.96802ZM2 8.30005V15.6334C2 15.7316 2.00481 15.8297 2.01444 15.9274C2.02407 16.0252 2.03847 16.1223 2.05764 16.2187C2.07681 16.315 2.10066 16.4102 2.12918 16.5042C2.1577 16.5983 2.19076 16.6907 2.22836 16.7814C2.26596 16.8722 2.30792 16.9609 2.35423 17.0476C2.40055 17.1342 2.451 17.2184 2.50559 17.3001C2.56018 17.3818 2.61864 17.4606 2.68097 17.5366C2.7433 17.6125 2.8092 17.6852 2.87868 17.7547C2.94815 17.8242 3.02087 17.8901 3.09682 17.9524C3.17277 18.0147 3.25159 18.0732 3.33329 18.1278C3.41499 18.1824 3.49916 18.2328 3.58581 18.2791C3.67246 18.3255 3.76117 18.3674 3.85195 18.405C3.94272 18.4426 4.03512 18.4757 4.12915 18.5042C4.22317 18.5327 4.31836 18.5566 4.41473 18.5757C4.5111 18.5949 4.60817 18.6093 4.70595 18.6189C4.80373 18.6286 4.90175 18.6334 5 18.6334H17C17.0983 18.6334 17.1963 18.6286 17.2941 18.6189C17.3918 18.6093 17.4889 18.5949 17.5853 18.5757C17.6816 18.5566 17.7768 18.5327 17.8709 18.5042C17.9649 18.4757 18.0573 18.4426 18.1481 18.405C18.2388 18.3674 18.3275 18.3255 18.4142 18.2791C18.5008 18.2328 18.585 18.1824 18.6667 18.1278C18.7484 18.0732 18.8272 18.0147 18.9032 17.9524C18.9791 17.8901 19.0518 17.8242 19.1213 17.7547C19.1908 17.6852 19.2567 17.6125 19.319 17.5366C19.3814 17.4606 19.4398 17.3818 19.4944 17.3001C19.549 17.2184 19.5994 17.1342 19.6458 17.0476C19.6921 16.9609 19.734 16.8722 19.7716 16.7814C19.8092 16.6907 19.8423 16.5983 19.8708 16.5042C19.8993 16.4102 19.9232 16.315 19.9424 16.2187C19.9615 16.1223 19.9759 16.0252 19.9856 15.9274C19.9952 15.8297 20 15.7316 20 15.6334V8.30005C20 8.2018 19.9952 8.10378 19.9856 8.006C19.9759 7.90822 19.9615 7.81114 19.9424 7.71478C19.9232 7.61841 19.8993 7.52322 19.8708 7.4292C19.8423 7.33517 19.8092 7.24277 19.7716 7.152C19.734 7.06122 19.6921 6.97251 19.6458 6.88586C19.5994 6.79921 19.549 6.71503 19.4944 6.63334C19.4398 6.55164 19.3814 6.47282 19.319 6.39687C19.2567 6.32092 19.1908 6.2482 19.1213 6.17873C19.0518 6.10925 18.9791 6.04335 18.9032 5.98102C18.8272 5.91869 18.7484 5.86023 18.6667 5.80564C18.585 5.75105 18.5008 5.7006 18.4142 5.65429C18.3275 5.60797 18.2388 5.56601 18.1481 5.52841C18.0573 5.49081 17.9649 5.45775 17.8709 5.42923C17.7768 5.40071 17.6816 5.37686 17.5853 5.35769C17.4889 5.33852 17.3918 5.32413 17.2941 5.3145C17.1963 5.30486 17.0983 5.30005 17 5.30005H5C4.90175 5.30005 4.80373 5.30486 4.70595 5.3145C4.60817 5.32413 4.5111 5.33852 4.41473 5.35769C4.31836 5.37686 4.22317 5.40071 4.12914 5.42923C4.03512 5.45775 3.94272 5.49081 3.85195 5.52841C3.76117 5.56601 3.67246 5.60797 3.58581 5.65429C3.49916 5.7006 3.41499 5.75105 3.33329 5.80564C3.25159 5.86023 3.17277 5.91869 3.09682 5.98102C3.02087 6.04335 2.94815 6.10925 2.87868 6.17873C2.8092 6.2482 2.7433 6.32092 2.68097 6.39687C2.61864 6.47282 2.56018 6.55164 2.50559 6.63334C2.451 6.71503 2.40055 6.79921 2.35423 6.88586C2.30792 6.97251 2.26596 7.06122 2.22836 7.152C2.19076 7.24277 2.1577 7.33517 2.12918 7.4292C2.10066 7.52322 2.07681 7.61841 2.05764 7.71478C2.03847 7.81114 2.02407 7.90822 2.01444 8.006C2.00481 8.10378 2 8.2018 2 8.30005ZM3.93934 16.694C3.64645 16.4011 3.5 16.0476 3.5 15.6334V8.30005C3.5 7.88584 3.64645 7.53228 3.93934 7.23939C4.23223 6.9465 4.58579 6.80005 5 6.80005H17C17.4142 6.80005 17.7678 6.9465 18.0607 7.23939C18.3536 7.53228 18.5 7.88584 18.5 8.30005V15.6334C18.5 16.0476 18.3536 16.4011 18.0607 16.694C17.7678 16.9869 17.4142 17.1334 17 17.1334H5C4.58579 17.1334 4.23223 16.9869 3.93934 16.694ZM5 14.6334V9.30005C5 9.23439 5.0064 9.16936 5.01921 9.10496C5.03202 9.04056 5.05099 8.97803 5.07612 8.91736C5.10125 8.8567 5.13205 8.79907 5.16853 8.74448C5.20501 8.68988 5.24647 8.63937 5.29289 8.59294C5.33932 8.54651 5.38984 8.50506 5.44443 8.46858C5.49903 8.4321 5.55666 8.4013 5.61732 8.37617C5.67798 8.35104 5.74051 8.33207 5.80491 8.31926C5.86931 8.30645 5.93434 8.30005 6 8.30005H16C16.0657 8.30005 16.1307 8.30645 16.1951 8.31926C16.2595 8.33207 16.322 8.35104 16.3827 8.37617C16.4433 8.4013 16.501 8.4321 16.5556 8.46858C16.6102 8.50506 16.6607 8.54651 16.7071 8.59294C16.7535 8.63937 16.795 8.68988 16.8315 8.74448C16.8679 8.79907 16.8988 8.8567 16.9239 8.91736C16.949 8.97803 16.968 9.04056 16.9808 9.10496C16.9936 9.16936 17 9.23439 17 9.30005V14.6334C17 14.699 16.9936 14.7641 16.9808 14.8285C16.968 14.8929 16.949 14.9554 16.9239 15.0161C16.8988 15.0767 16.8679 15.1344 16.8315 15.189C16.795 15.2435 16.7535 15.2941 16.7071 15.3405C16.6607 15.3869 16.6102 15.4284 16.5556 15.4649C16.501 15.5013 16.4433 15.5321 16.3827 15.5573C16.322 15.5824 16.2595 15.6014 16.1951 15.6142C16.1307 15.627 16.0657 15.6334 16 15.6334H6C5.93434 15.6334 5.86931 15.627 5.80491 15.6142C5.74051 15.6014 5.67798 15.5824 5.61732 15.5573C5.55666 15.5321 5.49903 15.5013 5.44443 15.4649C5.38984 15.4284 5.33932 15.3869 5.29289 15.3405C5.24647 15.2941 5.20501 15.2435 5.16853 15.189C5.13205 15.1344 5.10125 15.0767 5.07612 15.0161C5.05099 14.9554 5.03202 14.8929 5.01921 14.8285C5.0064 14.7641 5 14.699 5 14.6334ZM9.24994 11.8584L11.667 9.44135C11.694 9.41432 11.7275 9.40002 11.7657 9.40002H11.7712C11.8618 9.40002 11.9263 9.48484 11.9091 9.57378L11.5 11.6917L12.419 11.6917C12.5464 11.6917 12.6012 11.8419 12.5116 11.9324L10.1107 14.3566C10.0835 14.3841 10.0467 14.4 10.008 14.4C9.91745 14.4 9.84873 14.3153 9.86492 14.2263L10.25 12.1084H9.34368C9.21462 12.1084 9.15868 11.9497 9.24994 11.8584Z" fill="#00D15C"/>
</svg>
