<svg width="24" height="24" viewBox="0 0 24 24" fill="none" xmlns="http://www.w3.org/2000/svg">
<path fill-rule="evenodd" clip-rule="evenodd" d="M2 15.6334L2 8.30005C2 8.2018 2.00482 8.10378 2.01445 8.006C2.02408 7.90822 2.03848 7.81114 2.05764 7.71478C2.07681 7.61841 2.10066 7.52322 2.12918 7.42919C2.1577 7.33517 2.19076 7.24277 2.22836 7.152C2.26596 7.06122 2.30792 6.97251 2.35424 6.88586C2.40055 6.79921 2.451 6.71503 2.50559 6.63334C2.56018 6.55164 2.61864 6.47282 2.68097 6.39687C2.7433 6.32092 2.8092 6.2482 2.87868 6.17873C2.94816 6.10925 3.02087 6.04335 3.09682 5.98102C3.17277 5.91869 3.25159 5.86023 3.33329 5.80564C3.41498 5.75105 3.49916 5.7006 3.58581 5.65428C3.67246 5.60797 3.76118 5.56601 3.85195 5.52841C3.94272 5.49081 4.03512 5.45775 4.12915 5.42923C4.22317 5.40071 4.31836 5.37686 4.41473 5.35769C4.51109 5.33852 4.60817 5.32413 4.70595 5.31449C4.80373 5.30486 4.90175 5.30005 5 5.30005L17 5.30005C17.0983 5.30005 17.1963 5.30486 17.2941 5.31449C17.3918 5.32412 17.4889 5.33852 17.5853 5.35769C17.6816 5.37686 17.7768 5.40071 17.8709 5.42923C17.9649 5.45775 18.0573 5.49081 18.148 5.52841C18.2388 5.56601 18.3275 5.60797 18.4142 5.65428C18.5008 5.7006 18.585 5.75105 18.6667 5.80564C18.7484 5.86023 18.8272 5.91869 18.9032 5.98102C18.9791 6.04335 19.0518 6.10925 19.1213 6.17873C19.1908 6.2482 19.2567 6.32092 19.319 6.39687C19.3814 6.47282 19.4398 6.55164 19.4944 6.63334C19.549 6.71503 19.5994 6.79921 19.6458 6.88586C19.6921 6.97251 19.734 7.06122 19.7716 7.152C19.8092 7.24277 19.8423 7.33517 19.8708 7.42919C19.8993 7.52322 19.9232 7.61841 19.9424 7.71478C19.9615 7.81114 19.9759 7.90822 19.9856 8.006C19.9952 8.10378 20 8.20179 20 8.30005L20 15.6334C20 15.7316 19.9952 15.8297 19.9856 15.9274C19.9759 16.0252 19.9615 16.1223 19.9424 16.2187C19.9232 16.315 19.8993 16.4102 19.8708 16.5042C19.8423 16.5983 19.8092 16.6907 19.7716 16.7814C19.734 16.8722 19.6921 16.9609 19.6458 17.0476C19.5994 17.1342 19.549 17.2184 19.4944 17.3001C19.4398 17.3818 19.3814 17.4606 19.319 17.5366C19.2567 17.6125 19.1908 17.6852 19.1213 17.7547C19.0518 17.8242 18.9791 17.8901 18.9032 17.9524C18.8272 18.0147 18.7484 18.0732 18.6667 18.1278C18.585 18.1824 18.5008 18.2328 18.4142 18.2791C18.3275 18.3255 18.2388 18.3674 18.148 18.405C18.0573 18.4426 17.9649 18.4757 17.8709 18.5042C17.7768 18.5327 17.6816 18.5566 17.5853 18.5757C17.4889 18.5949 17.3918 18.6093 17.2941 18.6189C17.1963 18.6286 17.0983 18.6334 17 18.6334L5 18.6334C4.90175 18.6334 4.80373 18.6286 4.70595 18.6189C4.60817 18.6093 4.5111 18.5949 4.41473 18.5757C4.31836 18.5566 4.22317 18.5327 4.12915 18.5042C4.03512 18.4757 3.94273 18.4426 3.85195 18.405C3.76118 18.3674 3.67246 18.3255 3.58581 18.2791C3.49916 18.2328 3.41498 18.1824 3.33329 18.1278C3.25159 18.0732 3.17277 18.0147 3.09682 17.9524C3.02087 17.8901 2.94816 17.8242 2.87868 17.7547C2.8092 17.6852 2.7433 17.6125 2.68097 17.5366C2.61864 17.4606 2.56018 17.3818 2.50559 17.3001C2.451 17.2184 2.40055 17.1342 2.35424 17.0476C2.30792 16.9609 2.26596 16.8722 2.22836 16.7814C2.19076 16.6907 2.1577 16.5983 2.12918 16.5042C2.10066 16.4102 2.07681 16.315 2.05764 16.2187C2.03848 16.1223 2.02408 16.0252 2.01445 15.9274C2.00482 15.8297 2 15.7316 2 15.6334ZM3.5 15.6334C3.5 16.0476 3.64645 16.4011 3.93934 16.694C4.23223 16.9869 4.58579 17.1334 5 17.1334L17 17.1334C17.4142 17.1334 17.7678 16.9869 18.0607 16.694C18.3536 16.4011 18.5 16.0476 18.5 15.6334L18.5 8.30005C18.5 7.88584 18.3536 7.53228 18.0607 7.23939C17.7678 6.94649 17.4142 6.80005 17 6.80005L5 6.80005C4.58579 6.80005 4.23223 6.9465 3.93934 7.23939C3.64645 7.53228 3.5 7.88584 3.5 8.30005L3.5 15.6334ZM5 9.30005L5 14.6334C5 14.699 5.00641 14.7641 5.01922 14.8285C5.03203 14.8929 5.05099 14.9554 5.07612 15.0161C5.10125 15.0767 5.13205 15.1344 5.16853 15.189C5.20501 15.2435 5.24646 15.2941 5.29289 15.3405C5.33932 15.3869 5.38983 15.4284 5.44443 15.4649C5.49902 15.5013 5.55665 15.5321 5.61732 15.5573C5.67798 15.5824 5.74051 15.6014 5.80491 15.6142C5.86931 15.627 5.93434 15.6334 6 15.6334L16 15.6334C16.0657 15.6334 16.1307 15.627 16.1951 15.6142C16.2595 15.6014 16.322 15.5824 16.3827 15.5573C16.4433 15.5321 16.501 15.5013 16.5556 15.4648C16.6102 15.4284 16.6607 15.3869 16.7071 15.3405C16.7535 15.2941 16.795 15.2435 16.8315 15.189C16.8679 15.1344 16.8988 15.0767 16.9239 15.0161C16.949 14.9554 16.968 14.8929 16.9808 14.8285C16.9936 14.7641 17 14.699 17 14.6334L17 9.30005C17 9.23439 16.9936 9.16936 16.9808 9.10496C16.968 9.04056 16.949 8.97803 16.9239 8.91736C16.8988 8.8567 16.8679 8.79907 16.8315 8.74448C16.795 8.68988 16.7535 8.63937 16.7071 8.59294C16.6607 8.54651 16.6102 8.50506 16.5556 8.46858C16.501 8.4321 16.4433 8.4013 16.3827 8.37617C16.322 8.35104 16.2595 8.33207 16.1951 8.31926C16.1307 8.30645 16.0657 8.30005 16 8.30005L6 8.30005C5.93434 8.30005 5.86931 8.30645 5.80491 8.31926C5.74051 8.33207 5.67798 8.35104 5.61732 8.37617C5.55665 8.4013 5.49902 8.4321 5.44443 8.46858C5.38983 8.50506 5.33932 8.54651 5.29289 8.59294C5.24646 8.63937 5.20501 8.68988 5.16853 8.74448C5.13205 8.79907 5.10125 8.8567 5.07612 8.91736C5.05099 8.97803 5.03202 9.04056 5.01921 9.10496C5.00641 9.16936 5 9.23439 5 9.30005ZM22 10.968C22 10.4157 21.5523 9.96802 21 9.96802L21 13.968C21.5523 13.968 22 13.5203 22 12.968L22 10.968Z" fill="#FFA400"/>
</svg>
