<svg width="24" height="24" viewBox="0 0 24 24" fill="none" xmlns="http://www.w3.org/2000/svg">
<path fill-rule="evenodd" clip-rule="evenodd" d="M15.2272 12L9.36361 17.8636C9.27922 17.948 9.21419 18.0453 9.16851 18.1556C9.12284 18.2659 9.10001 18.3807 9.10001 18.5C9.10001 18.6194 9.12284 18.7342 9.16851 18.8444C9.21419 18.9547 9.27922 19.052 9.36361 19.1364C9.448 19.2208 9.54533 19.2858 9.65559 19.3315C9.76585 19.3772 9.88066 19.4 10 19.4C10.1194 19.4 10.2342 19.3772 10.3444 19.3315C10.4547 19.2858 10.552 19.2208 10.6364 19.1364L17.1364 12.6364C17.1782 12.5946 17.2155 12.5492 17.2483 12.5C17.2812 12.4509 17.3089 12.399 17.3315 12.3444C17.3541 12.2898 17.3712 12.2335 17.3827 12.1756C17.3942 12.1176 17.4 12.0591 17.4 12C17.4 11.9409 17.3942 11.8824 17.3827 11.8244C17.3712 11.7665 17.3541 11.7102 17.3315 11.6556C17.3089 11.601 17.2812 11.5491 17.2483 11.5C17.2155 11.4509 17.1782 11.4054 17.1364 11.3636L10.6364 4.86361C10.5946 4.82182 10.5492 4.78452 10.5 4.75168C10.4509 4.71885 10.399 4.69113 10.3444 4.66851C10.2898 4.6459 10.2335 4.62883 10.1756 4.6173C10.1176 4.60577 10.0591 4.60001 10 4.60001C9.94091 4.60001 9.88238 4.60577 9.82442 4.6173C9.76647 4.62883 9.71019 4.6459 9.65559 4.66851C9.60099 4.69113 9.54913 4.71885 9.49999 4.75168C9.45086 4.78451 9.4054 4.82182 9.36361 4.86361C9.32182 4.9054 9.28451 4.95086 9.25168 4.99999C9.21885 5.04913 9.19113 5.10099 9.16851 5.15559C9.1459 5.21019 9.12883 5.26647 9.1173 5.32442C9.10577 5.38238 9.10001 5.44091 9.10001 5.50001C9.10001 5.5591 9.10577 5.61763 9.1173 5.67559C9.12883 5.73355 9.1459 5.78982 9.16851 5.84442C9.19113 5.89902 9.21885 5.95088 9.25168 6.00002C9.28451 6.04915 9.32182 6.09462 9.36361 6.1364L15.2272 12Z" fill="white"/>
</svg>
