<svg width="24" height="24" viewBox="0 0 24 24" fill="none" xmlns="http://www.w3.org/2000/svg">
<g clip-path="url(#clip0_131_649)">
<mask id="mask0_131_649" style="mask-type:luminance" maskUnits="userSpaceOnUse" x="0" y="0" width="24" height="24">
<path d="M24 0H0V24H24V0Z" fill="white"/>
</mask>
<g mask="url(#mask0_131_649)">
<path fill-rule="evenodd" clip-rule="evenodd" d="M21 9.96802C21.5523 9.96802 22 10.4157 22 10.968V12.968C22 13.5203 21.5523 13.968 21 13.968V9.96802ZM2 8.30005V15.6334C2 17.2902 3.34315 18.6334 5 18.6334H17C18.6569 18.6334 20 17.2902 20 15.6334V8.30005C20 6.64319 18.6569 5.30005 17 5.30005H5C3.34315 5.30005 2 6.64319 2 8.30005ZM3.93934 16.694C3.64645 16.4011 3.5 16.0476 3.5 15.6334V8.30005C3.5 7.88584 3.64645 7.53228 3.93934 7.23939C4.23223 6.9465 4.58579 6.80005 5 6.80005H17C17.4142 6.80005 17.7678 6.9465 18.0607 7.23939C18.3536 7.53228 18.5 7.88584 18.5 8.30005V15.6334C18.5 16.0476 18.3536 16.4011 18.0607 16.694C17.7678 16.9869 17.4142 17.1334 17 17.1334H5C4.58579 17.1334 4.23223 16.9869 3.93934 16.694ZM5 14.6334V9.30005C5 8.74776 5.44772 8.30005 6 8.30005H16C16.5523 8.30005 17 8.74776 17 9.30005V14.6334C17 15.1857 16.5523 15.6334 16 15.6334H6C5.44772 15.6334 5 15.1857 5 14.6334ZM9.24994 11.8585L11.667 9.44147C11.694 9.41444 11.7275 9.40015 11.7657 9.40015H11.7712C11.8618 9.40015 11.9263 9.48496 11.9091 9.5739L11.5 11.6918H12.419C12.5464 11.6918 12.6012 11.842 12.5116 11.9325L10.1107 14.3567C10.0835 14.3842 10.0467 14.4001 10.008 14.4001C9.91745 14.4001 9.84873 14.3155 9.86492 14.2264L10.25 12.1085H9.34368C9.21462 12.1085 9.15868 11.9498 9.24994 11.8585Z" fill="#00D15C"/>
</g>
</g>
<defs>
<clipPath id="clip0_131_649">
<rect width="24" height="24" fill="white"/>
</clipPath>
</defs>
</svg>
