<svg width="24" height="24" viewBox="0 0 24 24" fill="none" xmlns="http://www.w3.org/2000/svg">
<path fill-rule="evenodd" clip-rule="evenodd" d="M15.2272 12L9.3636 17.8636C9.27921 17.948 9.21418 18.0453 9.16851 18.1556C9.12283 18.2658 9.1 18.3806 9.1 18.5C9.1 18.6193 9.12283 18.7341 9.16851 18.8444C9.21418 18.9547 9.27921 19.052 9.3636 19.1364C9.44799 19.2208 9.54532 19.2858 9.65558 19.3315C9.76585 19.3772 9.88065 19.4 10 19.4C10.1193 19.4 10.2342 19.3772 10.3444 19.3315C10.4547 19.2858 10.552 19.2208 10.6364 19.1364L17.1364 12.6364C17.1782 12.5946 17.2155 12.5491 17.2483 12.5C17.2812 12.4509 17.3089 12.399 17.3315 12.3444C17.3541 12.2898 17.3712 12.2335 17.3827 12.1756C17.3942 12.1176 17.4 12.0591 17.4 12C17.4 11.9409 17.3942 11.8824 17.3827 11.8244C17.3712 11.7665 17.3541 11.7102 17.3315 11.6556C17.3089 11.601 17.2812 11.5491 17.2483 11.5C17.2155 11.4508 17.1782 11.4054 17.1364 11.3636L10.6364 4.8636C10.5946 4.82182 10.5491 4.78451 10.5 4.75168C10.4509 4.71884 10.399 4.69112 10.3444 4.66851C10.2898 4.64589 10.2335 4.62882 10.1756 4.61729C10.1176 4.60576 10.0591 4.6 10 4.6C9.9409 4.6 9.88238 4.60576 9.82442 4.61729C9.76646 4.62882 9.71018 4.64589 9.65558 4.66851C9.60099 4.69112 9.54912 4.71884 9.49998 4.75168C9.45085 4.78451 9.40539 4.82182 9.3636 4.8636C9.32182 4.90539 9.28451 4.95085 9.25168 4.99999C9.21884 5.04912 9.19112 5.10099 9.16851 5.15558C9.14589 5.21018 9.12882 5.26646 9.11729 5.32442C9.10576 5.38238 9.1 5.4409 9.1 5.5C9.1 5.55909 9.10576 5.61762 9.11729 5.67558C9.12882 5.73354 9.14589 5.78982 9.16851 5.84441C9.19112 5.89901 9.21884 5.95088 9.25168 6.00001C9.28451 6.04915 9.32182 6.09461 9.3636 6.13639L15.2272 12Z" fill="white" fill-opacity="0.6"/>
</svg>
