<svg width="24" height="24" viewBox="0 0 24 24" fill="none" xmlns="http://www.w3.org/2000/svg">
<path fill-rule="evenodd" clip-rule="evenodd" d="M11.9995 9.60063C13.3249 9.60063 14.3997 10.6747 14.3999 12C14.3997 13.3254 13.3249 14.4004 11.9995 14.4004C10.6744 14.4002 9.60029 13.3252 9.60011 12C9.60032 10.6749 10.6744 9.60089 11.9995 9.60063ZM11.9995 11.2002C11.558 11.2005 11.1999 11.5586 11.1997 12C11.1999 12.4416 11.558 12.8006 11.9995 12.8008C12.4412 12.8008 12.8001 12.4417 12.8003 12C12.8001 11.5584 12.4412 11.2002 11.9995 11.2002Z" fill="white" fill-opacity="0.6"/>
<path fill-rule="evenodd" clip-rule="evenodd" d="M11.4233 2.56938C11.8078 2.48851 12.1922 2.48851 12.5767 2.56938C12.8676 2.63061 13.3418 2.85177 13.9995 3.23149L18.5942 5.88384C19.2518 6.26346 19.6798 6.56384 19.8784 6.7852C20.1408 7.07774 20.3334 7.41079 20.4556 7.78423C20.548 8.06686 20.5942 8.58815 20.5942 9.3477V14.6524C20.5942 15.4119 20.548 15.9332 20.4556 16.2159C20.3334 16.5893 20.1408 16.9223 19.8784 17.2149C19.6799 17.4363 19.2518 17.7366 18.5942 18.1163L13.9995 20.7696C13.342 21.1492 12.8676 21.3695 12.5767 21.4307C12.1922 21.5116 11.8078 21.5116 11.4233 21.4307C11.1323 21.3695 10.6573 21.1493 9.99952 20.7696L5.40577 18.1163C4.74822 17.7366 4.32016 17.4363 4.12159 17.2149C3.85925 16.9223 3.66663 16.5893 3.54444 16.2159C3.45197 15.9332 3.40577 15.4119 3.40577 14.6524V9.3477C3.40577 8.58815 3.45197 8.06686 3.54444 7.78423C3.66663 7.41079 3.85927 7.07773 4.12159 6.7852C4.32019 6.56384 4.74826 6.26346 5.40577 5.88384L9.99952 3.23149C10.6573 2.85171 11.1323 2.63062 11.4233 2.56938ZM12.2476 4.13481C12.0827 4.10012 11.9173 4.10012 11.7524 4.13481C11.6278 4.16111 11.3104 4.32176 10.8003 4.61626L6.20557 7.26958C5.69525 7.56422 5.397 7.75879 5.31202 7.85356C5.19966 7.97894 5.1173 8.12225 5.06495 8.28227C5.02545 8.4037 5.00538 8.75891 5.00538 9.3477V14.6524C5.00538 15.2419 5.02536 15.5978 5.06495 15.7188C5.1173 15.8787 5.19977 16.0213 5.31202 16.1465C5.39702 16.2413 5.69505 16.4367 6.20557 16.7315L10.8003 19.3838C11.3104 19.6783 11.6278 19.839 11.7524 19.8653C11.9173 19.9 12.0827 19.9 12.2476 19.8653C12.3723 19.839 12.6896 19.6783 13.1997 19.3838L17.7944 16.7315C18.305 16.4367 18.603 16.2413 18.688 16.1465C18.8002 16.0213 18.8827 15.8787 18.9351 15.7188C18.9747 15.5978 18.9946 15.2419 18.9946 14.6524V9.3477C18.9946 8.75893 18.9746 8.40372 18.9351 8.28227C18.8827 8.12226 18.8004 7.97894 18.688 7.85356C18.603 7.75879 18.3048 7.56422 17.7944 7.26958L13.1997 4.61626C12.6896 4.32177 12.3722 4.16112 12.2476 4.13481Z" fill="white" fill-opacity="0.6"/>
</svg>
